<mxfile host="app.diagrams.net" modified="2023-08-28T10:54:56.359Z" agent="Mozilla/5.0 (Windows NT 10.0; Win64; x64) AppleWebKit/537.36 (KHTML, like Gecko) Chrome/116.0.0.0 Safari/537.36" etag="lCktnfiU6uA8IGekYuo-" version="21.6.9" type="device">
  <diagram name="PÃ¡gina-1" id="sKYVVwJ60XzpFSZFB7ht">
    <mxGraphModel dx="1434" dy="750" grid="1" gridSize="10" guides="1" tooltips="1" connect="1" arrows="1" fold="1" page="1" pageScale="1" pageWidth="827" pageHeight="1169" math="0" shadow="0">
      <root>
        <mxCell id="0" />
        <mxCell id="1" parent="0" />
        <mxCell id="fOt38PjaJYUBhax6dQfw-1" value="&lt;font style=&quot;font-size: 18px;&quot;&gt;DER conceitual - PawPets&lt;/font&gt;" style="text;html=1;strokeColor=none;fillColor=none;align=center;verticalAlign=middle;whiteSpace=wrap;rounded=0;" vertex="1" parent="1">
          <mxGeometry x="291" y="90" width="246" height="30" as="geometry" />
        </mxCell>
      </root>
    </mxGraphModel>
  </diagram>
</mxfile>
